<svg width="42" height="42" viewBox="0 0 42 42" fill="none" xmlns="http://www.w3.org/2000/svg">
<path d="M12.0834 30.2833L15.7522 29.225L37.8418 6.87083C38.016 6.69228 38.113 6.45236 38.1118 6.20288C38.1107 5.95341 38.0114 5.71441 37.8355 5.5375L36.5126 4.2C36.4271 4.11216 36.325 4.04223 36.2122 3.99428C36.0994 3.94634 35.9781 3.92135 35.8556 3.92077C35.733 3.92019 35.6115 3.94403 35.4983 3.9909C35.385 4.03776 35.2822 4.10672 35.1959 4.19375L13.1647 26.4896L12.0834 30.2833ZM39.1313 1.55L40.4543 2.88958C42.2793 4.7375 42.2959 7.71875 40.4876 9.54791L17.7251 32.5854L9.88342 34.8438C9.40466 34.9778 8.89229 34.9164 8.45875 34.673C8.02521 34.4297 7.70591 34.0243 7.57092 33.5458C7.47046 33.2018 7.46902 32.8365 7.56675 32.4917L9.848 24.4917L32.5501 1.51458C32.9818 1.07991 33.4957 0.735543 34.0618 0.501565C34.628 0.267587 35.2351 0.148682 35.8477 0.151785C36.4603 0.154888 37.0662 0.279936 37.6299 0.519637C38.1937 0.759338 38.7041 1.11098 39.1313 1.55ZM15.1334 3.95208C16.1667 3.95208 17.0042 4.8 17.0042 5.84583C17.0059 6.09306 16.9588 6.33818 16.8656 6.56719C16.7725 6.7962 16.6351 7.0046 16.4614 7.18048C16.2876 7.35636 16.0809 7.49627 15.853 7.5922C15.6252 7.68814 15.3806 7.73822 15.1334 7.73958H7.65008C5.58342 7.73958 3.90842 9.43541 3.90842 11.525V34.2458C3.90842 36.3375 5.58342 38.0333 7.65008 38.0333H30.1001C32.1668 38.0333 33.8438 36.3375 33.8438 34.2458V26.6729C33.8438 25.6271 34.6813 24.7792 35.7147 24.7792C36.748 24.7792 37.5855 25.6271 37.5855 26.675V34.2458C37.5855 38.4292 34.2334 41.8208 30.1001 41.8208H7.65008C3.51675 41.8208 0.166748 38.4292 0.166748 34.2458V11.525C0.166748 7.34375 3.51675 3.95208 7.65008 3.95208H15.1334Z" fill="#FFFDFD"/>
</svg>
