<svg width="50" height="47" viewBox="0 0 50 47" fill="none" xmlns="http://www.w3.org/2000/svg">
<path d="M25 0L24.0875 0.445102L3.25625 10.4162L2.08333 10.9873V14.4811H47.9167V10.9873L46.7437 10.4162L25.9104 0.445102L25 0ZM25 4.57297L37.2396 10.4162H12.7604L25 4.57297ZM6.25 16.5135V36.8378H4.16667V40.9027H45.8333V36.8378H43.75V16.5135H39.5833V36.8378H35.4167V16.5135H31.25V36.8378H27.0833V16.5135H22.9167V36.8378H18.75V16.5135H14.5833V36.8378H10.4167V16.5135H6.25ZM0 42.9351V47H50V42.9351H0Z" fill="url(#paint0_linear_106_70)"/>
<defs>
<linearGradient id="paint0_linear_106_70" x1="25" y1="0" x2="25" y2="47" gradientUnits="userSpaceOnUse">
<stop stop-color="#3FB8B8"/>
<stop offset="0.931667" stop-color="#090630"/>
</linearGradient>
</defs>
</svg>
